<svg xmlns="http://www.w3.org/2000/svg" viewBox="0 0 24 24" width="100%" height="100%"><style>.st0{fill:#2B6CB0;} .st1{fill:#4299E1;}</style><path class="st0" d="M15 20c-1.66 0-3-1.34-3-3 0-1.31.84-2.41 2-2.83V12.1c-2.28.46-4 2.48-4 4.9 0 2.76 2.24 5 5 5s5-2.24 5-5c0-2.42-1.72-4.44-4-4.9v2.07c1.16.42 2 1.52 2 2.83 0 1.66-1.34 3-3 3z"/><path class="st1" d="M12 2C6.48 2 2 6.48 2 12c0 2.76 1.12 5.26 2.93 7.07l1.42-1.42C4.9 16.21 4 14.21 4 12c0-4.41 3.59-8 8-8s8 3.59 8 8c0 2.21-.9 4.21-2.35 5.65l1.42 1.42C20.88 17.26 22 14.76 22 12c0-5.52-4.48-10-10-10z"/></svg>